<?xml version="1.0" encoding="utf-8"?>
<!-- Generator: Adobe Illustrator 16.0.0, SVG Export Plug-In . SVG Version: 6.00 Build 0)  -->
<!DOCTYPE svg PUBLIC "-//W3C//DTD SVG 1.1//EN" "http://www.w3.org/Graphics/SVG/1.1/DTD/svg11.dtd">
<svg version="1.1" xmlns="http://www.w3.org/2000/svg" xmlns:xlink="http://www.w3.org/1999/xlink" x="0px" y="0px" width="960px"
	 height="565.742px" viewBox="0 0 960 565.742" enable-background="new 0 0 960 565.742" xml:space="preserve">
<g id="Layer_2" display="none">
	<g display="inline">
		<path fill="#FFFFFF" d="M846.87,16.82C818.41,5.508,782.34-0.061,738.744-0.06H220.547c-43.596-0.001-79.667,5.568-108.126,16.88"
			/>
		<path fill="#FFFFFF" d="M112.421,16.82C83.93,28.073,61.304,44.214,44.66,65.3C27.985,86.416,16.406,112.241,9.86,142.863
			C3.286,173.518,0,208.197,0,246.961v318.781h74.809h809.674h74.809V246.961c0-38.764-3.286-73.443-9.86-104.098
			c-6.546-30.623-18.125-56.447-34.8-77.563c-16.645-21.086-39.27-37.227-67.761-48.48"/>
	</g>
</g>
<g id="Layer_1">
	<g>
		<g>
			<path fill="#808080" d="M623.116,44.069c-26.597,10.505-47.69,25.572-63.257,45.257c-15.512,19.713-26.35,43.821-32.481,72.408
				c-6.138,28.617-9.181,60.991-9.181,97.178v167.845h69.808V260.102c0-34.86,3.018-63.31,9.015-85.373
				c5.943-22.089,14.684-39.396,26.099-51.865c11.445-12.524,25.632-21.013,42.494-25.547c16.919-4.534,36.385-6.773,58.472-6.773
				c21.788,0,41.227,2.239,58.229,6.773c17.057,4.534,31.377,12.996,43.069,25.326c11.728,12.385,20.599,29.607,26.57,51.672
				c5.971,22.088,8.955,50.675,8.955,85.787v166.655h69.422V258.912c0-17.308-0.607-35.136-1.797-53.47
				c-1.189-18.384-4.008-36.048-8.375-53.054c-4.396-17.055-11.032-33.12-19.936-48.297c-8.931-15.179-20.983-28.312-36.301-39.51
				c-15.29-11.142-34.255-19.959-56.871-26.539c-22.64-6.526-50.261-9.731-82.971-9.731
				C683.363,28.31,649.715,33.509,623.116,44.069"/>
		</g>
		<g>
			<path fill="#808080" d="M134.617,44.069C108.02,54.574,86.898,69.642,71.36,89.326c-15.566,19.713-26.375,43.821-32.486,72.408
				c-6.137,28.617-9.205,60.991-9.205,97.178v167.845h69.836V260.102c0-34.86,2.985-63.31,8.983-85.373
				c5.973-22.089,14.68-39.396,26.128-51.865c11.445-12.524,25.574-21.013,42.436-25.547c16.923-4.534,36.385-6.773,58.503-6.773
				c21.812,0,41.22,2.239,58.25,6.773c17.031,4.534,31.38,12.996,43.103,25.326c11.692,12.385,20.515,29.607,26.542,51.672
				c5.941,22.088,8.93,50.675,8.93,85.787v166.655h69.479V258.912c0-17.308-0.639-35.136-1.826-53.47
				c-1.188-18.384-3.98-36.048-8.404-53.054c-4.34-17.055-11.003-33.12-19.933-48.297c-8.903-15.179-21.014-28.312-36.302-39.51
				c-15.315-11.142-34.254-19.959-56.868-26.539c-22.587-6.526-50.235-9.731-82.969-9.731
				C194.858,28.31,161.185,33.509,134.617,44.069"/>
		</g>
		<path fill="#808080" d="M908.472,505.552l21.898-21.397h-13.075l-21.32,21.54v-21.54h-9.592v51.286h9.592v-17.643l5.698-5.612
			l16.586,23.255h12.304L908.472,505.552z M825.643,526.512c-1.824-0.807-3.43-1.996-4.698-3.54
			c-1.327-1.521-2.353-3.432-3.069-5.646c-0.771-2.21-1.107-4.751-1.107-7.598c0-2.797,0.361-5.286,1.107-7.495
			c0.75-2.238,1.798-4.114,3.125-5.644c1.328-1.55,2.928-2.705,4.727-3.534c1.799-0.806,3.845-1.188,6.029-1.188
			c2.102,0,4.092,0.383,5.891,1.188c1.796,0.772,3.397,1.936,4.699,3.483c1.325,1.493,2.353,3.398,3.12,5.585
			c0.746,2.237,1.107,4.757,1.107,7.604c0,2.847-0.333,5.388-1.077,7.598c-0.749,2.215-1.771,4.125-3.125,5.646
			c-1.299,1.544-2.902,2.733-4.727,3.54c-1.824,0.828-3.848,1.211-6.003,1.211C829.487,527.723,827.494,527.34,825.643,526.512
			 M821.802,485.178c-3.016,1.246-5.611,3.012-7.854,5.332c-2.159,2.294-3.897,5.089-5.145,8.354
			c-1.188,3.264-1.852,6.916-1.852,10.864c0,3.956,0.662,7.549,1.852,10.812c1.188,3.207,2.902,6.023,5.117,8.375
			c2.152,2.35,4.751,4.12,7.794,5.394c2.987,1.304,6.301,1.938,9.953,1.938c3.649,0,6.938-0.671,9.953-1.938
			c3.04-1.271,5.639-3.1,7.797-5.416c2.186-2.354,3.926-5.146,5.114-8.407c1.188-3.234,1.819-6.799,1.819-10.755
			c0-3.948-0.632-7.572-1.85-10.813c-1.245-3.285-2.931-6.08-5.117-8.374c-2.235-2.288-4.777-4.092-7.848-5.332
			c-2.987-1.273-6.247-1.933-9.871-1.933S824.786,483.904,821.802,485.178 M749.533,513.014h9.229c2.074,0,3.787,0.197,5.114,0.445
			c1.412,0.275,2.488,0.721,3.317,1.245c0.854,0.581,1.437,1.24,1.77,2.103c0.306,0.856,0.526,1.877,0.526,3.011
			c0,4.536-3.288,6.803-9.871,6.803h-10.088L749.533,513.014L749.533,513.014z M749.533,492.944h8.541
			c1.739,0,3.204,0.11,4.394,0.332c1.161,0.226,2.13,0.553,2.851,1.021c0.747,0.468,1.271,1.054,1.604,1.771
			c0.332,0.691,0.471,1.521,0.471,2.463c0,2.103-0.66,3.596-2.1,4.479c-1.412,0.879-3.596,1.354-6.61,1.354h-9.146v-11.419
			L749.533,492.944L749.533,492.944z M778.862,516.221c-0.33-1.188-0.772-2.314-1.381-3.343c-0.581-1.02-1.355-1.961-2.271-2.823
			c-0.91-0.795-1.964-1.544-3.204-2.125c1.688-1.271,2.928-2.705,3.703-4.281c0.828-1.636,1.217-3.513,1.217-5.672
			c0-2.15-0.47-4.091-1.271-5.805c-0.856-1.713-2.13-3.156-3.702-4.34c-1.551-1.245-3.483-2.073-5.725-2.767
			c-2.239-0.639-4.755-0.913-7.466-0.913h-18.801v51.285h19.714c6.552,0,11.418-1.297,14.707-3.955
			c3.288-2.595,4.951-6.498,4.951-11.667C779.336,518.599,779.139,517.387,778.862,516.221 M679.277,526.512
			c-1.792-0.807-3.398-1.996-4.697-3.54c-1.355-1.521-2.382-3.432-3.125-5.646c-0.747-2.21-1.105-4.751-1.105-7.598
			c0-2.797,0.358-5.286,1.135-7.495c0.746-2.238,1.798-4.114,3.125-5.644c1.354-1.55,2.901-2.705,4.754-3.534
			c1.824-0.806,3.813-1.188,6.026-1.188c2.073,0,4.063,0.383,5.86,1.188c1.852,0.772,3.401,1.936,4.729,3.483
			c1.355,1.493,2.322,3.398,3.125,5.585c0.718,2.237,1.077,4.757,1.077,7.604c0,2.847-0.359,5.388-1.077,7.598
			c-0.748,2.215-1.77,4.125-3.069,5.646c-1.327,1.544-2.902,2.733-4.782,3.54c-1.822,0.828-3.812,1.211-6.027,1.211
			C683.096,527.723,681.104,527.34,679.277,526.512 M675.411,485.178c-3.018,1.246-5.613,3.012-7.8,5.332
			c-2.238,2.294-3.923,5.089-5.168,8.354c-1.246,3.264-1.881,6.916-1.881,10.864c0,3.956,0.635,7.549,1.853,10.812
			c1.242,3.207,2.902,6.023,5.089,8.375c2.209,2.35,4.809,4.12,7.822,5.394c2.986,1.304,6.332,1.938,9.953,1.938
			s6.938-0.671,9.979-1.938c3.009-1.271,5.638-3.1,7.794-5.416c2.131-2.354,3.872-5.146,5.089-8.407
			c1.22-3.234,1.826-6.799,1.826-10.755c0-3.948-0.637-7.572-1.882-10.813c-1.161-3.285-2.931-6.08-5.09-8.374
			c-2.182-2.288-4.809-4.092-7.794-5.332c-3.041-1.273-6.329-1.933-9.925-1.933C681.712,483.273,678.449,483.904,675.411,485.178
			 M598.77,492.505h13.689c2.956,0,5.168,0.552,6.552,1.603c1.406,1.054,2.127,2.736,2.127,5.03c0,1.274-0.192,2.353-0.495,3.207
			c-0.39,0.828-0.996,1.544-1.74,2.13c-0.777,0.521-1.772,0.914-3.017,1.161c-1.188,0.222-2.653,0.333-4.371,0.333H598.77V492.505z
			 M622.964,535.438h10.395L627.8,520.26c-0.659-1.876-1.494-3.486-2.322-4.757c-0.913-1.268-1.877-2.321-3.013-3.15
			c2.652-1.217,4.729-2.93,6.22-5.173c1.521-2.21,2.294-4.946,2.294-8.043c0-2.158-0.438-4.255-1.271-6.306
			c-0.828-2.046-2.1-3.788-3.812-5.197c-0.939-0.8-1.908-1.437-2.962-1.876c-1.02-0.502-2.127-0.829-3.288-1.104
			c-1.104-0.228-2.294-0.361-3.565-0.417c-1.243-0.085-2.542-0.085-3.926-0.085h-22.976v51.284h9.592v-20.647H609
			c1.055,0,2.074,0.163,3.044,0.518c0.94,0.34,1.771,0.809,2.544,1.389c0.801,0.607,1.491,1.297,2.074,2.131
			c0.635,0.828,1.076,1.713,1.381,2.652L622.964,535.438z M556.805,484.152h-9.626v19.714h-21.923v-19.714h-9.592v51.285h9.592
			v-22.753h21.923v22.753h9.626V484.152z M485.557,500.242c-0.44-2.541-1.302-4.894-2.541-6.994
			c-1.246-2.073-2.852-3.895-4.699-5.337c-1.911-1.487-3.982-2.654-6.332-3.427c-2.375-0.828-4.866-1.211-7.522-1.211
			c-3.646,0-6.966,0.631-9.924,1.877c-2.958,1.237-5.502,2.979-7.604,5.309c-2.046,2.294-3.647,5.055-4.812,8.318
			c-1.161,3.233-1.713,6.915-1.713,10.948c0,4.063,0.552,7.712,1.657,10.976c1.161,3.263,2.767,6.022,4.812,8.352
			c2.074,2.322,4.619,4.092,7.604,5.365c2.932,1.189,6.275,1.826,9.979,1.826c2.822,0,5.423-0.396,7.88-1.166
			c2.407-0.772,4.534-1.936,6.417-3.427c1.854-1.522,3.371-3.376,4.561-5.585c1.221-2.238,1.99-4.785,2.376-7.633h-9.841
			c-0.5,3.017-1.771,5.311-3.814,6.909c-1.989,1.606-4.562,2.378-7.656,2.378c-2.159,0-4.063-0.383-5.861-1.188
			c-1.715-0.771-3.235-1.961-4.479-3.454c-1.246-1.572-2.212-3.427-2.902-5.692c-0.664-2.215-0.97-4.757-0.97-7.659
			c0-2.906,0.306-5.442,0.97-7.657c0.69-2.209,1.657-4.094,2.902-5.559c1.243-1.521,2.765-2.683,4.506-3.455
			c1.771-0.775,3.732-1.16,5.974-1.16c1.382,0,2.765,0.221,4.034,0.58c1.271,0.355,2.406,0.907,3.373,1.629
			c0.995,0.723,1.854,1.605,2.488,2.654c0.693,0.997,1.133,2.152,1.409,3.482H485.557L485.557,500.242z M349.176,505.552
			l21.896-21.397h-13.077l-21.317,21.54v-21.54h-9.62v51.286h9.62v-17.643l5.696-5.612l16.617,23.255h12.271L349.176,505.552z
			 M297.06,526.618h-29.664v-13.329h26.707v-8.729h-26.707v-11.613h28.533v-8.792H257.83v51.286h39.23V526.618z M193.659,492.505
			h13.687c3.014,0,5.196,0.552,6.58,1.603c1.41,1.054,2.129,2.736,2.129,5.03c0,1.274-0.193,2.353-0.552,3.207
			c-0.361,0.828-0.913,1.544-1.742,2.13c-0.747,0.521-1.715,0.914-2.958,1.161c-1.216,0.222-2.681,0.333-4.424,0.333H193.66
			L193.659,492.505L193.659,492.505z M217.879,535.438h10.34l-5.529-15.178c-0.69-1.876-1.465-3.486-2.35-4.757
			c-0.858-1.268-1.853-2.321-2.987-3.15c2.683-1.217,4.755-2.93,6.219-5.173c1.548-2.21,2.297-4.946,2.297-8.043
			c0-2.158-0.443-4.255-1.272-6.306c-0.802-2.046-2.102-3.788-3.789-5.197c-0.912-0.8-1.906-1.437-2.956-1.876
			c-1.051-0.502-2.132-0.829-3.263-1.104c-1.189-0.228-2.35-0.361-3.623-0.417c-1.243-0.085-2.57-0.085-3.927-0.085h-23.001v51.284
			h9.62v-20.647h10.229c1.05,0,2.101,0.163,3.042,0.518c0.94,0.34,1.796,0.809,2.57,1.389c0.829,0.607,1.465,1.297,2.074,2.131
			c0.579,0.828,1.051,1.713,1.41,2.652L217.879,535.438z M136.816,484.102h-9.095l-19.768,51.339h10.175l5.364-14.712h17.943
			l5.64,14.712h10.67L136.816,484.102z M126.368,512.63l5.889-16.313l6.192,16.313H126.368z M81.636,484.152H69.249l-11.916,36.549
			l-11.916-36.549H32.975v51.284h9.291v-32.872l11.004,32.872h8.046L72.4,502.564v32.873h9.236V484.152z"/>
	</g>
</g>
</svg>
